HIERARCHY
ROOT Hips
{
	OFFSET 0.00000 0.00000 0.00000
	CHANNELS 6 Xposition Yposition Zposition Zrotation Yrotation Xrotation 
	JOINT LHipJoint
	{
		OFFSET 0 0 0
		CHANNELS 3 Zrotation Yrotation Xrotation
		JOINT LeftUpLeg
		{
			OFFSET 1.42489 -1.84941 0.69647
			CHANNELS 3 Zrotation Yrotation Xrotation
			JOINT LeftLeg
			{
				OFFSET 2.44443 -6.71602 0.00000
				CHANNELS 3 Zrotation Yrotation Xrotation
				JOINT LeftFoot
				{
					OFFSET 2.62838 -7.22137 0.00000
					CHANNELS 3 Zrotation Yrotation Xrotation
					JOINT LeftToeBase
					{
						OFFSET 0.24036 -0.66037 2.29953
						CHANNELS 3 Zrotation Yrotation Xrotation
						End Site
						{
							OFFSET 0.00000 -0.00000 1.19837
						}
					}
				}
			}
		}
	}
	JOINT RHipJoint
	{
		OFFSET 0 0 0
		CHANNELS 3 Zrotation Yrotation Xrotation
		JOINT RightUpLeg
		{
			OFFSET -1.37055 -1.84941 0.69647
			CHANNELS 3 Zrotation Yrotation Xrotation
			JOINT RightLeg
			{
				OFFSET -2.54834 -7.00152 0.00000
				CHANNELS 3 Zrotation Yrotation Xrotation
				JOINT RightFoot
				{
					OFFSET -2.65692 -7.29983 0.00000
					CHANNELS 3 Zrotation Yrotation Xrotation
					JOINT RightToeBase
					{
						OFFSET -0.18839 -0.51760 2.29390
						CHANNELS 3 Zrotation Yrotation Xrotation
						End Site
						{
							OFFSET -0.00000 -0.00000 1.18261
						}
					}
				}
			}
		}
	}
	JOINT LowerBack
	{
		OFFSET 0 0 0
		CHANNELS 3 Zrotation Yrotation Xrotation
		JOINT Spine
		{
			OFFSET 0.05220 2.15489 0.05011
			CHANNELS 3 Zrotation Yrotation Xrotation
			JOINT Spine1
			{
				OFFSET -0.07653 2.14219 -0.05668
				CHANNELS 3 Zrotation Yrotation Xrotation
				JOINT Neck
				{
					OFFSET 0 0 0
					CHANNELS 3 Zrotation Yrotation Xrotation
					JOINT Neck1
					{
						OFFSET 0.01370 1.58638 0.01447
						CHANNELS 3 Zrotation Yrotation Xrotation
						JOINT Head
						{
							OFFSET 0.23548 1.54190 -0.21747
							CHANNELS 3 Zrotation Yrotation Xrotation
							End Site
							{
								OFFSET 0.07132 1.59823 -0.08163
							}
						}
					}
				}
				JOINT LeftShoulder
				{
					OFFSET 0 0 0
					CHANNELS 3 Zrotation Yrotation Xrotation
					JOINT LeftArm
					{
						OFFSET 3.47056 1.45357 -0.58896
						CHANNELS 3 Zrotation Yrotation Xrotation
						JOINT LeftForeArm
						{
							OFFSET 5.19069 -0.00000 0.00000
							CHANNELS 3 Zrotation Yrotation Xrotation
							JOINT LeftHand
							{
								OFFSET 3.30016 -0.00000 0.00000
								CHANNELS 3 Zrotation Yrotation Xrotation
								JOINT LeftFingerBase
								{
									OFFSET 0 0 0
									CHANNELS 3 Zrotation Yrotation Xrotation
									JOINT LeftHandIndex1
									{
										OFFSET 0.70770 -0.00000 0.00000
										CHANNELS 3 Zrotation Yrotation Xrotation
										End Site
										{
											OFFSET 0.57056 -0.00000 0.00000
										}
									}
								}
								JOINT LThumb
								{
									OFFSET 0 0 0
									CHANNELS 3 Zrotation Yrotation Xrotation
									End Site
									{
										OFFSET 0.57928 -0.00000 0.57928
									}
								}
							}
						}
					}
				}
				JOINT RightShoulder
				{
					OFFSET 0 0 0
					CHANNELS 3 Zrotation Yrotation Xrotation
					JOINT RightArm
					{
						OFFSET -2.89018 2.03305 -0.26731
						CHANNELS 3 Zrotation Yrotation Xrotation
						JOINT RightForeArm
						{
							OFFSET -5.23924 -0.00000 0.00000
							CHANNELS 3 Zrotation Yrotation Xrotation
							JOINT RightHand
							{
								OFFSET -3.32953 -0.00000 0.00000
								CHANNELS 3 Zrotation Yrotation Xrotation
								JOINT RightFingerBase
								{
									OFFSET 0 0 0
									CHANNELS 3 Zrotation Yrotation Xrotation
									JOINT RightHandIndex1
									{
										OFFSET -0.60741 -0.00000 0.00000
										CHANNELS 3 Zrotation Yrotation Xrotation
										End Site
										{
											OFFSET -0.48971 -0.00000 0.00000
										}
									}
								}
								JOINT RThumb
								{
									OFFSET 0 0 0
									CHANNELS 3 Zrotation Yrotation Xrotation
									End Site
									{
										OFFSET -0.49719 -0.00000 0.49719
									}
								}
							}
						}
					}
				}
			}
		}
	}
}
MOTION
Frames: 6
Frame Time: .0083333
25.4461 16.6473 47.3568 0 0 0 0 0 0 -21 0 0 0 0 0 0 0 0 0 0 0 0 0 0 21 0 0 0 0 0 0 0 0 0 0 0 0 0 0 0 0 0 0 0 0 0 0 -16 0 0 21 0 0 11 0 0 0 -8 0 0 0 0 0 0 0 0 0 0 0 0 0 0 0 0 0 0 0 0 8 0 0 0 0 0 0 0 0 0 0 0 0 0 0 0 0 0
25.4461 16.6473 47.3568 -170.6220 -63.2213 171.8640 0.0000 0.0000 0.0000 -16.7275 6.5323 -12.0090 2.0500 8.9694 25.6998 0.5394 9.1727 -20.1119 0.9467 -6.1966 -17.3558 0.0000 0.0000 0.0000 23.9569 1.5262 -14.5029 -3.2043 -11.0186 32.3427 -0.4849 -6.9269 -17.4841 -1.3064 7.2406 -20.4302 4.7719 1.6641 -2.0595 -1.5644 1.9396 5.3425 -4.1656 1.2152 6.9700 -0.4752 -1.6131 -10.8462 11.4164 -3.3835 6.4758 3.3545 -1.1882 3.9376 -0.0000 0.0000 0.0000 -78.0377 -8.1142 40.6797 11.8515 -19.5816 -2.0522 -0.0000 0.0000 -7.5516 6.1263 -9.2915 -0.9928 -7.1250 0.0000 -0.0000 -14.8336 20.7595 8.9114 -0.0000 0.0000 0.0000 84.8988 -4.2943 30.3914 -22.9208 34.0021 -7.0939 0.0000 -0.0000 -3.4849 -9.5948 -7.6881 1.2955 7.1250 -0.0000 -0.0000 14.6067 -37.4037 2.8034
25.4445 16.6482 47.3456 -170.6450 -63.3008 171.8380 0.0000 0.0000 0.0000 -16.6903 6.5690 -11.9115 2.0416 8.9522 25.6458 0.5460 9.0590 -20.0729 0.9646 -6.2535 -17.5216 0.0000 0.0000 0.0000 23.9821 1.5407 -14.3879 -3.2005 -11.0128 32.3230 -0.4839 -7.0537 -17.5819 -1.2900 7.1968 -20.2997 5.0360 1.6299 -1.8062 -1.8474 1.9138 5.1684 -4.6231 1.2158 6.6583 0.4642 -2.0488 -11.9550 10.5731 -4.2026 7.8587 2.8774 -1.5167 4.5577 0.0000 -0.0000 0.0000 -77.4976 -7.8129 40.8659 11.8900 -19.6395 -2.0652 -0.0000 0.0000 -7.7507 6.1192 -9.2433 -0.9866 -7.1250 0.0000 -0.0000 -14.8426 20.8065 8.9008 0.0000 -0.0000 0.0000 85.4393 -4.5204 30.3742 -22.9216 34.0029 -7.0944 0.0000 -0.0000 -3.4085 -9.5642 -7.7363 1.2994 7.1250 -0.0000 -0.0000 14.6424 -37.4491 2.7939
25.4435 16.6488 47.3445 -170.7140 -63.3003 171.8890 0.0000 0.0000 0.0000 -16.7123 6.5288 -11.8719 2.0419 8.9529 25.6480 0.5584 8.9672 -20.1136 0.9670 -6.2608 -17.5429 0.0000 0.0000 0.0000 23.9553 1.5263 -14.3811 -3.2026 -11.0161 32.3340 -0.4798 -7.1170 -17.5896 -1.3376 7.3229 -20.6756 5.0733 1.6309 -1.7897 -1.8737 1.9158 5.1574 -4.6724 1.2189 6.6401 0.3652 -2.0077 -11.9146 10.7260 -4.1490 7.8461 2.9455 -1.4876 4.5501 -0.0000 0.0000 0.0000 -77.4808 -7.8227 40.8839 11.8772 -19.6202 -2.0609 -0.0000 0.0000 -7.7864 6.1103 -9.2329 -0.9840 -7.1250 0.0000 -0.0000 -14.8498 20.8169 8.9018 -0.0000 0.0000 0.0000 85.4730 -4.4862 30.3872 -22.9210 34.0023 -7.0941 0.0000 -0.0000 -3.3625 -10.1098 -7.6346 1.3570 7.1250 -0.0000 -0.0000 14.1684 -37.3849 2.7217
25.4492 16.6485 47.3450 -170.6300 -63.5301 171.8780 0.0000 0.0000 0.0000 -16.7652 6.4521 -12.0612 2.0407 8.9504 25.6402 0.5039 9.2768 -19.8425 1.0552 -6.5317 -18.3351 0.0000 0.0000 0.0000 23.9526 1.4516 -14.5057 -3.2032 -11.0169 32.3371 -0.4859 -7.1533 -17.6918 -1.2684 7.1384 -20.1260 4.8914 1.6086 -1.9568 -1.7130 1.8779 5.2178 -4.3985 1.1904 6.7814 0.4368 -2.0991 -12.0738 10.4143 -4.2588 7.9970 2.8279 -1.5421 4.6190 -0.0000 0.0000 0.0000 -77.7670 -8.0515 40.9342 11.8208 -19.5354 -2.0420 -0.0000 0.0000 -7.7014 6.1141 -9.2200 -0.9833 -7.1250 0.0000 -0.0000 -14.8482 20.8294 8.8964 -0.0000 0.0000 0.0000 85.2259 -4.3100 30.3176 -22.9033 33.9828 -7.0841 0.0000 -0.0000 -3.4482 -10.2000 -7.6489 1.3719 7.1250 -0.0000 -0.0000 14.0966 -37.4049 2.7001
25.4454 16.6492 47.3403 -170.7050 -63.4684 171.9310 0.0000 0.0000 0.0000 -16.7660 6.4954 -12.0029 2.0402 8.9494 25.6372 0.5160 9.2330 -19.9275 1.0386 -6.4816 -18.1883 0.0000 0.0000 0.0000 23.9487 1.5357 -14.4374 -3.2039 -11.0181 32.3409 -0.4730 -7.2781 -17.6516 -1.3338 7.3130 -20.6461 4.8697 1.5863 -1.9794 -1.6899 1.8467 5.2235 -4.3641 1.1735 6.7948 -0.0788 -1.7470 -11.4404 11.0786 -3.7038 7.4124 3.1628 -1.2951 4.3283 0.0000 -0.0000 0.0000 -77.8570 -8.0951 40.7374 11.7892 -19.4878 -2.0314 -0.0000 0.0000 -7.6228 6.0938 -9.2650 -0.9847 -7.1250 0.0000 -0.0000 -14.8586 20.7861 8.9182 0.0000 -0.0000 0.0000 85.1504 -4.2114 30.4323 -22.8644 33.9402 -7.0624 0.0000 -0.0000 -3.4454 -9.8651 -7.6011 1.3177 7.1250 -0.0000 -0.0000 14.3642 -37.3360 2.7789
